# xmcd
#
# Track frame offsets:
#	150
#	14643
#	43711
#
# Disc length: 1535 seconds
#
# Revision: 0
# Processed by: cddbd v1.5.1PL0 Copyright (c) Steve Scherf et al.
# Submitted via: dBpowerAMP V4.0
#
DISCID=2005fd03
DTITLE=Natalie Imbruglia - CDTD single
DYEAR=2005
DGENRE=Pop
TTITLE0=Counting Down The Days (Single Version)
TTITLE1=What's The Good In Goodbye
TTITLE2=DATA
EXTD=
EXTT0=
EXTT1=
EXTT2=
PLAYORDER=
